# xmcd CD database file
#
# Track frame offsets:
#	150
#	33707
#	68179
#	91521
#	136565
#	174657
#	233679
#
# Disc length: 4055 seconds
#
# Revision: 1
# Processed by: cddbd v1.5.2PL0 Copyright (c) Steve Scherf et al.
# Submitted via: CDex 1.81
#
DISCID=4e0fd507
DTITLE=Various Artist - JazzPiano History - [CD19) Fusion-Free
DYEAR=1900
DGENRE=Jazz
TTITLE0=Cedar Walton and Eddie Harris Quartet - Freedom Jazz Dance
TTITLE1=Dave Brubeck Group - Tritonis
TTITLE2=Dave Brubeck Group - Benjamin Christopfer David Brubeck
TTITLE3=Danilo Perez and Roy Haynes Group - I Hear A Rhapsody
TTITLE4=Danilo Perez and Roy Haynes Group - Bright Mississippi
TTITLE5=Chick Corea Electric Band - Yes My Dear
TTITLE6=Chick Corea Electric Band - Better Match
EXTD=
EXTT0=
EXTT1=
EXTT2=
EXTT3=
EXTT4=
EXTT5=
EXTT6=
PLAYORDER=
